<mxfile host="app.diagrams.net" modified="2023-05-27T20:36:13.139Z" agent="Mozilla/5.0 (Windows NT 10.0; Win64; x64; rv:109.0) Gecko/20100101 Firefox/113.0" etag="n_nXXZQmJwLt9UmmfR9x" version="21.3.4" type="github">
  <diagram name="Page-1" id="_Gt65h91OPeUalBwf7d9">
    <mxGraphModel dx="1050" dy="566" grid="1" gridSize="10" guides="1" tooltips="1" connect="1" arrows="1" fold="1" page="1" pageScale="1" pageWidth="1100" pageHeight="850" math="0" shadow="0">
      <root>
        <mxCell id="0" />
        <mxCell id="1" parent="0" />
        <mxCell id="1owuqA12Tn_liVOMmT4I-7" style="edgeStyle=orthogonalEdgeStyle;rounded=0;orthogonalLoop=1;jettySize=auto;html=1;exitX=0.5;exitY=1;exitDx=0;exitDy=0;exitPerimeter=0;" edge="1" parent="1" source="1owuqA12Tn_liVOMmT4I-5" target="1owuqA12Tn_liVOMmT4I-6">
          <mxGeometry relative="1" as="geometry" />
        </mxCell>
        <mxCell id="1owuqA12Tn_liVOMmT4I-5" value="start" style="strokeWidth=2;html=1;shape=mxgraph.flowchart.start_1;whiteSpace=wrap;" vertex="1" parent="1">
          <mxGeometry x="410" y="10" width="100" height="60" as="geometry" />
        </mxCell>
        <mxCell id="1owuqA12Tn_liVOMmT4I-9" style="edgeStyle=orthogonalEdgeStyle;rounded=0;orthogonalLoop=1;jettySize=auto;html=1;exitX=0.5;exitY=1;exitDx=0;exitDy=0;entryX=0.5;entryY=0;entryDx=0;entryDy=0;entryPerimeter=0;" edge="1" parent="1" source="1owuqA12Tn_liVOMmT4I-6" target="1owuqA12Tn_liVOMmT4I-8">
          <mxGeometry relative="1" as="geometry" />
        </mxCell>
        <mxCell id="1owuqA12Tn_liVOMmT4I-6" value="&lt;div&gt;input(n)=[a,b,c]&lt;/div&gt;&lt;div&gt;sum=0&lt;/div&gt;&lt;div&gt;index(i)=0&lt;br&gt;&lt;/div&gt;" style="shape=parallelogram;html=1;strokeWidth=2;perimeter=parallelogramPerimeter;whiteSpace=wrap;rounded=1;arcSize=12;size=0.23;" vertex="1" parent="1">
          <mxGeometry x="370" y="100" width="170" height="60" as="geometry" />
        </mxCell>
        <mxCell id="1owuqA12Tn_liVOMmT4I-11" style="edgeStyle=orthogonalEdgeStyle;rounded=0;orthogonalLoop=1;jettySize=auto;html=1;" edge="1" parent="1" source="1owuqA12Tn_liVOMmT4I-8" target="1owuqA12Tn_liVOMmT4I-10">
          <mxGeometry relative="1" as="geometry" />
        </mxCell>
        <mxCell id="1owuqA12Tn_liVOMmT4I-16" style="edgeStyle=orthogonalEdgeStyle;rounded=0;orthogonalLoop=1;jettySize=auto;html=1;exitX=1;exitY=0.5;exitDx=0;exitDy=0;exitPerimeter=0;" edge="1" parent="1" source="1owuqA12Tn_liVOMmT4I-8" target="1owuqA12Tn_liVOMmT4I-15">
          <mxGeometry relative="1" as="geometry" />
        </mxCell>
        <mxCell id="1owuqA12Tn_liVOMmT4I-8" value="i&amp;lt;n.length" style="strokeWidth=2;html=1;shape=mxgraph.flowchart.decision;whiteSpace=wrap;" vertex="1" parent="1">
          <mxGeometry x="420" y="180" width="100" height="100" as="geometry" />
        </mxCell>
        <mxCell id="1owuqA12Tn_liVOMmT4I-14" style="edgeStyle=orthogonalEdgeStyle;rounded=0;orthogonalLoop=1;jettySize=auto;html=1;exitX=0;exitY=0.5;exitDx=0;exitDy=0;entryX=0;entryY=0.5;entryDx=0;entryDy=0;entryPerimeter=0;" edge="1" parent="1" source="1owuqA12Tn_liVOMmT4I-10" target="1owuqA12Tn_liVOMmT4I-8">
          <mxGeometry relative="1" as="geometry">
            <mxPoint x="380" y="270" as="targetPoint" />
          </mxGeometry>
        </mxCell>
        <mxCell id="1owuqA12Tn_liVOMmT4I-10" value="&lt;div&gt;sum+=i^2&lt;/div&gt;&lt;div&gt;increase i by one &lt;br&gt;&lt;/div&gt;" style="rounded=1;whiteSpace=wrap;html=1;absoluteArcSize=1;arcSize=14;strokeWidth=2;" vertex="1" parent="1">
          <mxGeometry x="420" y="380" width="90" height="80" as="geometry" />
        </mxCell>
        <mxCell id="1owuqA12Tn_liVOMmT4I-12" value="" style="strokeWidth=2;html=1;shape=mxgraph.flowchart.annotation_2;align=left;labelPosition=right;pointerEvents=1;" vertex="1" parent="1">
          <mxGeometry x="320" y="230" width="50" height="100" as="geometry" />
        </mxCell>
        <mxCell id="1owuqA12Tn_liVOMmT4I-13" value="loop" style="text;html=1;align=center;verticalAlign=middle;resizable=0;points=[];autosize=1;strokeColor=none;fillColor=none;" vertex="1" parent="1">
          <mxGeometry x="250" y="255" width="50" height="30" as="geometry" />
        </mxCell>
        <mxCell id="1owuqA12Tn_liVOMmT4I-19" style="edgeStyle=orthogonalEdgeStyle;rounded=0;orthogonalLoop=1;jettySize=auto;html=1;entryX=0;entryY=0.5;entryDx=0;entryDy=0;entryPerimeter=0;" edge="1" parent="1" source="1owuqA12Tn_liVOMmT4I-15" target="1owuqA12Tn_liVOMmT4I-18">
          <mxGeometry relative="1" as="geometry" />
        </mxCell>
        <mxCell id="1owuqA12Tn_liVOMmT4I-15" value="print sum" style="rounded=1;whiteSpace=wrap;html=1;absoluteArcSize=1;arcSize=14;strokeWidth=2;" vertex="1" parent="1">
          <mxGeometry x="610" y="190" width="60" height="80" as="geometry" />
        </mxCell>
        <mxCell id="1owuqA12Tn_liVOMmT4I-17" value="false" style="text;html=1;align=center;verticalAlign=middle;resizable=0;points=[];autosize=1;strokeColor=none;fillColor=none;" vertex="1" parent="1">
          <mxGeometry x="525" y="188" width="50" height="30" as="geometry" />
        </mxCell>
        <mxCell id="1owuqA12Tn_liVOMmT4I-18" value="stop" style="strokeWidth=2;html=1;shape=mxgraph.flowchart.start_1;whiteSpace=wrap;" vertex="1" parent="1">
          <mxGeometry x="750" y="200" width="100" height="60" as="geometry" />
        </mxCell>
      </root>
    </mxGraphModel>
  </diagram>
</mxfile>
